<?xml version="1.0" encoding="utf-8"?>
<!-- Generator: Adobe Illustrator 26.3.1, SVG Export Plug-In . SVG Version: 6.00 Build 0)  -->
<svg version="1.1" id="Layer_1" xmlns="http://www.w3.org/2000/svg" xmlns:xlink="http://www.w3.org/1999/xlink" x="0px" y="0px"
	 viewBox="0 0 472.8 472.9" style="enable-background:new 0 0 472.8 472.9;" xml:space="preserve">
<style type="text/css">
	.st0{fill:#AD4124;}
</style>
<path class="st0" d="M236.2,42.8c63,0,70.5,0.3,95.4,1.3c23,1,35.6,4.9,43.9,8.1c11,4.3,18.9,9.5,27.2,17.7
	c8.3,8.3,13.4,16.2,17.7,27.2c3.3,8.3,7.1,20.9,8.1,43.8c1.2,24.9,1.3,32.4,1.3,95.4s-0.3,70.5-1.3,95.4c-1,23-4.9,35.6-8.1,43.9
	c-4.3,11-9.5,18.9-17.7,27.2c-8.3,8.3-16.1,13.4-27.2,17.7c-8.3,3.3-20.9,7.1-43.9,8.1c-25,1.2-32.4,1.3-95.4,1.3
	s-70.5-0.3-95.4-1.3c-23-1-35.6-4.9-43.8-8.1c-11-4.3-18.9-9.5-27.2-17.7c-8.3-8.3-13.4-16.1-17.7-27.2c-3.3-8.3-7.1-20.9-8.1-43.9
	c-1.2-25-1.3-32.4-1.3-95.4s0.3-70.5,1.3-95.4c1-23,4.9-35.6,8.1-43.8c4.3-11,9.5-18.9,17.7-27.2c8.3-8.3,16.2-13.4,27.2-17.7
	c8.3-3.3,20.9-7.1,43.8-8.1C165.7,42.9,173.2,42.8,236.2,42.8 M236.2,0.3c-64.2,0-72.2,0.3-97.4,1.4s-42.3,5.1-57.4,11
	c-15.5,6-28.8,14.1-41.9,27.3C26.4,53.2,18.3,66.3,12.4,81.9C6.6,96.8,2.6,114,1.5,139C0.3,164.2,0,172.2,0,236.4s0.3,72.2,1.4,97.4
	c1.2,25.2,5.1,42.3,11,57.4c6,15.5,14.1,28.8,27.2,41.9s26.3,21.3,41.9,27.3c15,5.8,32.2,9.9,57.4,11s33.2,1.4,97.4,1.4
	s72.2-0.3,97.4-1.4c25.1-1.2,42.3-5.1,57.4-11c15.5-6,28.8-14,41.9-27.3c13.1-13.1,21.3-26.3,27.3-41.9c5.8-15,9.9-32.2,11-57.4
	c1.2-25.2,1.4-33.2,1.4-97.4s-0.3-72.2-1.4-97.4s-5.1-42.3-11-57.4c-6-15.5-14-28.8-27.3-41.9c-13.1-13.1-26.3-21.3-41.9-27.3
	c-15-5.8-32.2-9.9-57.4-11C308.6,0.2,300.5,0,236.3,0"/>
<path class="st0" d="M236.2,115.2c-67,0-121.3,54.4-121.3,121.3s54.4,121.3,121.3,121.3s121.3-54.4,121.3-121.3
	S303.2,115.2,236.2,115.2 M236.2,315.2c-43.5,0-78.8-35.3-78.8-78.8s35.2-78.8,78.8-78.8s78.8,35.2,78.8,78.8
	S279.8,315.2,236.2,315.2"/>
<path class="st0" d="M390.6,110.4c0,15.6-12.7,28.4-28.4,28.4s-28.4-12.7-28.4-28.4s12.7-28.4,28.4-28.4S390.6,94.8,390.6,110.4"/>
</svg>
