<?xml version="1.0" encoding="utf-8"?>
<!-- Generator: Adobe Illustrator 26.3.1, SVG Export Plug-In . SVG Version: 6.00 Build 0)  -->
<svg version="1.1" id="Layer_1" xmlns="http://www.w3.org/2000/svg" xmlns:xlink="http://www.w3.org/1999/xlink" x="0px" y="0px"
	 viewBox="0 0 459.3 373.1" style="enable-background:new 0 0 459.3 373.1;" xml:space="preserve">
<style type="text/css">
	.st0{fill:#AD4124;}
</style>
<path class="st0" d="M0.1,330.9c41.6,26.8,91.2,42.3,144.4,42.3c174.9,0,273.6-147.7,267.7-280.2c18.4-13.3,34.4-29.8,47-48.7
	c-16.9,7.5-35.1,12.6-54.1,14.8C424.6,47.4,439.6,29,446.5,7c-18.2,10.8-38.3,18.6-59.7,22.9C369.6,11.6,345.2,0,318,0
	c-60.8,0-105.4,56.7-91.8,115.7C148,111.7,78.5,74.2,32,17.2C7.3,59.6,19.3,114.9,61.2,143c-15.5-0.5-29.9-4.7-42.7-11.8
	c-1,43.6,30.2,84.4,75.5,93.6c-13.3,3.6-27.8,4.5-42.5,1.6c12,37.4,46.7,64.6,88,65.4c-39.7,31-89.4,44.9-139.4,39L0.1,330.9
	L0.1,330.9z"/>
</svg>
